<svg xmlns="http://www.w3.org/2000/svg" width="250pt" height="73.353704" viewBox="0 0 250 55.015277">
  <path fill="#ef4135" d="M9.37079955 25.19854c-3.21319412 7.26939608-3.70189296 8.50946978-1.82651232 8.63164293v.53146039c-1.117899-.03665633-2.49847245-.03665633-3.88515581-.03665633-1.69211936 0-2.8527799 0-3.65913142.03665633v-.53146039c1.3866818-.12216689 2.0097736-1.36224685 7.09834992-12.74282157l8.56444646-19.35858255h.67196169l8.29566365 19.4013441c4.91142182 11.30115997 5.49175209 12.57788687 6.82345722 12.70006002v.53146039c-.75137486-.03665633-1.9120354-.03665633-3.56750156-.03665633-1.55772795 0-3.12156425 0-4.23335334.03665633v-.53146039c1.8692723-.12216689 1.28894203-1.36224685-1.7409908-8.63164293zm11.24618175-3.1276726v-.12218253c-4.01954721-9.8656083-4.46548608-11.01404902-4.81979196-12.16860121h-.04275528c-.40317577 1.11179065-.89798295 2.3029929-5.03970644 12.1686012l-.04886988.12218254zm0 0"/>
  <path fill="#ef4135" d="M24.0561998 18.20403819c0-10.35430715 8.53390317-16.35308467 19.34025752-16.35308467 1.5638363 0 2.99327964.0794116 4.0684171.20158788.97739768.0855262 2.49847245.2932193 3.52474002.49480719-.1343961 2.05864349-.17715294 3.4575451-.26267446 5.51008024h-.54367864c-.3115459-1.0690291-.93463614-1.686011-1.78375077-2.09529668-1.06902912-.45204565-2.90164822-.73915661-5.00305324-.73915661-8.88821062 0-14.82590157 4.97250995-14.82590157 13.06047582 0 7.93524786 6.20647532 13.1154556 14.42272424 13.1154556 1.92425209 0 3.70800286-.2932193 4.86866184-.74526651.94074605-.40928411 1.65546772-.89798295 2.10140503-2.13194832h.48869884c0 1.8875989 0 3.86072087.04886988 5.21686094-.71472166.20769623-1.83262066.49480719-2.85888823.65974344-1.60659628.28711096-3.17043258.40928411-4.96029327.40928411-10.36041548 0-18.62553429-6.20647532-18.62553429-16.5607809zm0 0"/>
  <path fill="#ef4135" d="M66.95784994 26.21869922c0 4.48381111-3.7629811 8.50335988-10.80024445 8.50335988-2.33353776 0-4.88698844-.48869884-6.32254168-1.02626757.1343961-1.80818572.17715294-3.36591368.21991448-5.4673187h.58643861c.21991448 1.15455062.8063531 1.93646877 1.66157607 2.43127753.93463615.53145882 2.32742785.77580824 3.85461252.77580824 3.5858266 0 6.4080632-1.93035887 6.4080632-5.05192313 0-1.88760045-.8063531-3.40867521-2.87110649-4.97251151-1.42944334-1.06902912-2.77336516-1.97312041-4.39217969-3.16432424-3.18265239-2.30299447-4.84422846-4.5571175-4.84422846-7.88637798 0-4.52657265 3.9034824-8.34453354 10.26878563-8.34453354 1.88149055 0 3.76908944.28711097 5.02137984.6536351-.0855262 1.77153409-.17715294 3.37202202-.21991448 5.25962091h-.53756873c-.18326128-1.02626757-.72083001-1.64324947-1.43555324-2.05253514-.67806848-.32987094-1.70433605-.57422036-2.73671353-.57422036-3.4514352 0-6.01099578 1.85094726-6.01099578 4.80757527 0 1.686011.76359312 3.04214952 2.15638482 4.23335334 1.20952886 1.10568074 2.68784364 2.05253514 4.66096562 3.49419673 3.0910194 2.17470986 5.33292574 4.47770277 5.33292574 8.33842363zm0 0"/>
  <path fill="#3b6e8f" d="M108.43005674 54.20281637H107.385461C94.1600505 38.95541245 86.340869 30.61698882 81.49053689 25.01527871c-3.18265709-3.62247979-5.4673281-6.21869357-8.93097528-10.59254822h-.06724496v18.03909568c0 18.52779609 0 20.71472263 2.97494834 20.91631051v.89187617c-1.86926916-.06719804-3.94623143-.06719804-6.16370752-.06719804-2.4923641 0-4.01343886 0-5.60782001.06719804v-.81856978c2.9749546-.27489427 2.9749546-2.46182081 2.9749546-21.19120478V.3359871h1.04459417c13.5003126 15.65668804 21.45998915 24.95418432 26.31032126 30.55589442 3.0421464 3.4880884 5.19242131 6.01710413 8.44839104 10.11606607h.13433354V21.45999384c0-17.36102564 0-19.54795375-3.0421464-19.82284646V.8185776c1.58827907 0 3.73855398.06719805 5.81551625.06719805 2.35186905 0 4.15394017-.06719805 5.67502118-.06719805v.81856978c-2.6267602.27489271-2.6267602 2.46182082-2.6267602 20.02443434zm0 0"/>
  <path fill="#3b6e8f" d="M120.51924634 40.6658584c-4.9847282 12.1014063-5.7483182 12.5106904-2.8405679 12.71838819v.88576626c-1.7287741-.06719804-3.87293442-.06719804-6.02320933-.06719804-2.63285916 0-2.78558341 0-4.38607603-.03665632l-.04269274-.78191815c2.14416032-.2076978 1.86926917-2.2541246 9.76176332-21.19120323L130.28717117 0h1.03848113l12.87722235 32.26023203c7.61758737 18.79658045 8.51557345 20.91631051 10.59255135 21.1240083v.88576627c-1.17287722-.06719805-2.97496398-.06719805-5.5406251-.06719805-2.41906709 0-4.84423315 0-6.57300726.06719805v-.88576626c2.90776594-.2076978 2.00366526-.6169819-2.7000572-12.7183882zm17.45264768-6.82956556v-.20769779c-6.23701703-16.4080629-6.92729438-18.3200983-7.4770923-20.23213213h-.07334393c-.62309493 1.84483892-1.38668492 3.82406923-7.8252961 20.23213213l-.06724496.20769779zm0 0"/>
  <path fill="#3b6e8f" d="M194.86867176 54.8808864H193.830175c-13.2254105-15.24129557-21.05069096-24.26389758-25.89492412-29.86560769-3.18875604-3.6285897-5.47342705-6.22480191-8.93097528-10.59254822h-.07334392v18.03909568c0 18.52168618 0 20.70861429 2.98106295 20.91631051v.88576783c-1.86926917-.06719805-3.94624707-.06719805-6.16372316-.06719805-2.4923641 0-4.01954408 0-5.6139221.06719805v-.81857135c2.98106294-.2748927 2.98106294-2.46182081 2.98106294-21.18509487V.3359871h1.03848114c13.50641937 15.65668804 21.46609593 24.94807597 26.31032908 30.55589442 3.048261 3.48198005 5.1985359 6.01099578 8.4483754 10.11606607h.14058888V21.45999384c0-17.36713399 0-19.54795375-3.048261-19.82284646V.8185776c1.59437803 0 3.73853834.06719805 5.81551625.06719805 2.35796801 0 4.16003913-.06719805 5.68112015-.06719805v.81856978c-2.63285916.27489271-2.63285916 2.45571247-2.63285916 20.02443434Zm0 0"/>
  <path fill="#3b6e8f" d="M250.0000003 27.06170551c0 15.65057969-11.63103248 27.95357386-28.09406891 27.95357386-15.29627381 0-27.40379158-11.8937085-27.40379158-27.13500408 0-16.05986536 12.24801282-27.67868115 28.43617375-27.67868115 15.5039669 0 27.06168674 11.411118 27.06168674 26.79291489zm-6.92119542.20769623c0-12.16860121-9.05925677-21.39279267-20.8307843-21.39279267-11.76542858 0-20.7574873 9.29138794-20.7574873 21.66157703 0 12.44349392 9.06537137 21.7348803 20.7574873 21.7348803 11.83262661 0 20.8307843-9.15699342 20.8307843-21.93646818zm0 0"/>
</svg>