<svg xmlns="http://www.w3.org/2000/svg" xml:space="preserve" width="521.20703" height="142.58899">
  <path fill="#d71920" d="M52.06304972 110.33933273h6.58470734V13.8481648h-6.31543258v81.624696l-.26927476.26614367L19.1363819 13.8481648H9.9998265v95.56123066h6.31543258v-86.6689012l.26927476-.26614366 35.47851588 87.86498213M93.5877234 10.00004054l-32.2534809 99.41248602h6.9886195l8.87041174-29.06601914h32.9235367l8.73577437 29.06601914h7.12325687zm0 16.98935903 15.18584432 48.04675899H78.53651646L93.5877234 26.98939957m76.86855218 83.34993316h6.58470734V13.8481648h-6.31543257v81.624696l-.26927477.26614367-32.9235367-81.89083967h-9.13968652v95.56123066h6.31543258v-86.6689012l.26927476-.26614366 35.47851588 87.86498213m40.04679358.92993727c15.45511908 0 28.355259-9.02696684 28.355259-49.63735877 0-16.19719024.13463738-49.64362097-28.355259-49.64362097-26.0695546 0-28.75917115 27.87306931-28.75917115 49.64362097 0 40.87653559 13.43868945 49.63735877 28.75917115 49.63735877Zm-22.03982643-49.63735877c0-32.9204056 8.06258745-44.3332721 22.03982643-44.3332721 12.36472149 0 21.63591428 8.76082317 21.63591428 44.3332721 0 34.3701058-8.73577436 44.33014101-21.63591428 44.33014101-12.09544672 0-22.03982643-8.6293169-22.03982643-44.330141m70.65957707 23.11379438h-1.71584385v25.94117942h13.24143002v-1.44030688H259.1228198V84.74570562m46.25576869 0H292.5348084v25.94117942h13.10053044v-1.44030688h-11.3846866V98.0779376h7.98744101v-1.44343798h-7.987441V86.1860125h11.12793623v-1.44030688m39.10746302 0h-16.85472165v1.44030688h7.55221783v24.50087254h1.71271275V86.1860125h7.58979106v-1.44030688m38.88828587 0H366.5196157v1.44030688h7.55221784v24.50087254h1.71271275V86.1860125h7.58979106v-1.44030688m35.38145172 0H405.9151401v25.94117942h13.09739934v-1.44030688h-11.38468659V98.0779376h7.9905721v-1.44343798h-7.9905721V86.1860125h11.12793623v-1.44030688m22.14628389 25.93804832h1.71271275V99.48067126h4.81876586l6.5283475 11.20308268h2.15419812l-7.07942144-11.60073262c3.20937947-1.00508372 5.06925401-3.92640181 5.06925401-7.20466552 0-4.2144632-2.55184807-7.13578128-6.96357067-7.13578128h-6.24028613Zm1.71271275-24.50087254h4.52757338c3.67904475 0 5.14440045 2.52679925 5.14440045 5.5514437 0 4.5400978-3.06847988 6.30290818-5.40115081 6.30290818h-4.27082302V86.1828814m48.19392078.9769038c-1.7909903-1.6187797-4.19880768-2.91505589-6.6755093-2.91505589-3.79802663 0-6.78822897 2.2669178-6.78822897 6.15887748 0 3.13736413 2.22308237 4.86573239 4.74361942 6.3404814l2.4422595 1.44030688c4.85320797 2.84617164 5.14126935 3.78550222 5.14126935 6.23402392 0 3.0997909-2.54871696 5.33226658-5.61719685 5.33226658-2.51427484 0-4.70604619-1.44030689-6.08999324-3.4222944l-1.3119317 1.04578804c1.85987454 2.37650636 4.30526514 3.81681324 7.40192494 3.81681324 4.49000016 0 7.44576037-2.73658308 7.44576037-7.20466552 0-3.20624837-1.89744776-4.68412848-6.05868222-7.1670923l-2.15106702-1.2994073c-3.20937947-1.9444143-4.12053013-3.27826371-4.12053013-5.29782445 0-2.73658308 2.18550915-4.53696669 4.85320798-4.53696669 2.25752449 0 4.11739903 1.33071832 5.75809644 2.73658308l1.02700143-1.26183407"/>
  <path fill="#a21e21" d="M472.76729722 69.79156284c22.86956844 11.96394044 30.7881252 23.87778326 28.8343176 34.99945728-4.33031396 24.5916745-78.2180571 32.40064269-166.91278124 17.17409404-45.67964594-7.84341031-83.00238084-19.89815271-110.76586158-33.42451301 27.79479175 14.55023063 67.39696886 27.0370651 116.04803052 35.38771392 88.69472414 15.22967974 164.0728718 8.3193378 168.40318576-16.27233669 2.09783829-11.94515383-9.47158332-25.14274843-35.60689106-37.86441554"/>
  <path fill="#d72027" d="M471.93442411 69.38451959c22.86956844 11.95767824 35.77910166 24.62298551 33.82529406 35.74465954-4.33031395 24.5916745-79.73664154 32.18459665-168.43136567 16.9611791-45.68277704-7.8434103-85.95187886-20.2112629-113.7153596-33.7407543 27.79479176 14.55023063 70.31202476 28.0327555 118.96621752 36.38653543 88.69472414 15.22967975 164.10418282 7.63362649 168.43449678-16.9549169 2.09470718-11.94828494-12.94397535-25.68129797-39.07928309-38.39670287"/>
</svg>